<?xml version="1.0" standalone="no"?>
<!DOCTYPE svg PUBLIC "-//W3C//DTD SVG 20010904//EN"
 "http://www.w3.org/TR/2001/REC-SVG-20010904/DTD/svg10.dtd">
<svg version="1.0" xmlns="http://www.w3.org/2000/svg"
 width="1108.000000pt" height="490.000000pt" viewBox="0 0 1108.000000 490.000000"
 preserveAspectRatio="xMidYMid meet">
<metadata>
Created by potrace 1.16, written by Peter Selinger 2001-2019
</metadata>
<g transform="translate(0.000000,490.000000) scale(0.100000,-0.100000)"
fill="#000000" stroke="none">
<path d="M1210 4870 c-149 -32 -276 -93 -417 -199 -439 -332 -731 -940 -780
-1625 -11 -160 -4 -490 12 -539 2 -6 6 -30 9 -52 14 -107 41 -218 77 -309 10
-27 19 -53 19 -58 0 -5 20 -51 45 -103 54 -112 145 -250 212 -320 63 -67 167
-155 181 -155 7 0 12 -3 12 -7 0 -29 277 -148 388 -168 140 -24 370 -29 472
-10 194 36 398 143 538 282 37 37 51 46 54 34 2 -9 3 -129 2 -267 -2 -212 -13
-377 -30 -457 -2 -9 -6 -25 -8 -36 -25 -111 -97 -242 -181 -327 -46 -47 -161
-123 -221 -147 -111 -43 -237 -62 -397 -61 -325 4 -502 151 -519 433 -2 41 -2
42 -57 58 -86 25 -186 22 -245 -7 -99 -50 -149 -142 -145 -272 4 -147 66 -251
207 -350 119 -82 344 -146 582 -163 92 -7 320 -7 385 0 161 17 167 18 268 41
344 76 625 276 756 540 30 61 76 195 85 249 3 17 9 55 15 85 9 56 8 315 -3
360 -3 14 -8 39 -12 55 -3 17 -28 120 -54 230 -65 264 -63 249 -64 410 -3 243
38 431 130 603 24 45 44 87 44 92 0 11 -96 55 -179 82 -51 16 -80 20 -150 16
-100 -6 -168 -34 -219 -92 -74 -85 -94 -168 -106 -441 -10 -222 -64 -381 -165
-484 -144 -147 -360 -180 -588 -89 -266 106 -424 306 -507 643 -31 125 -41
241 -40 470 0 263 11 405 50 645 18 114 77 342 104 405 5 11 23 53 41 94 118
277 312 463 538 515 101 23 233 17 301 -15 131 -62 182 -174 175 -384 -4 -102
-14 -245 -20 -273 -9 -50 -19 -161 -17 -209 3 -116 98 -194 236 -194 178 0
303 106 350 297 25 100 28 123 32 304 4 134 1 193 -11 249 -34 165 -104 252
-246 310 -78 32 -145 72 -279 166 -108 76 -203 124 -290 147 -73 19 -280 18
-370 -2z"/>
<path d="M4936 4801 c-8 -9 -18 -32 -21 -51 -3 -19 -8 -42 -10 -50 -10 -37
-22 -250 -30 -560 -5 -186 -12 -278 -26 -332 l-10 -38 -82 0 c-45 -1 -145 -3
-222 -5 -245 -8 -306 -19 -345 -59 -19 -21 -22 -32 -17 -66 12 -95 113 -144
387 -190 151 -26 206 -38 244 -57 l28 -15 -7 -201 c-3 -111 -8 -227 -10 -257
-2 -30 -6 -138 -10 -240 -4 -102 -9 -219 -11 -260 -4 -103 -5 -616 0 -665 28
-316 102 -583 214 -770 48 -81 173 -204 242 -237 117 -57 256 -68 364 -28 254
96 483 507 609 1096 25 116 28 214 7 263 -13 33 -53 57 -100 59 -70 4 -85 -26
-149 -290 -60 -249 -91 -347 -146 -463 -97 -207 -221 -306 -327 -262 -80 34
-138 172 -165 394 -15 125 -7 1085 12 1453 11 218 25 402 31 421 7 23 44 37
142 54 200 33 320 41 392 26 30 -6 73 -13 95 -17 84 -12 239 -46 259 -56 23
-12 46 -40 41 -48 -2 -3 -6 -91 -10 -195 -4 -105 -9 -210 -10 -235 -4 -75 -18
-419 -21 -515 -4 -139 -5 -596 -1 -635 3 -19 8 -69 12 -110 17 -180 78 -420
140 -556 132 -289 356 -442 592 -404 194 32 390 243 513 554 51 128 49 127 71
65 92 -265 304 -464 564 -530 73 -18 118 -23 240 -23 165 -1 187 1 293 33 135
41 255 113 365 220 122 118 230 291 289 461 46 133 126 504 152 708 4 23 8 60
11 82 3 21 8 52 10 67 10 74 18 130 21 146 2 10 6 44 9 75 3 31 8 66 10 77 2
11 4 34 4 52 1 52 36 82 100 87 65 4 129 -9 154 -32 17 -16 18 -28 13 -149 -4
-73 -9 -141 -11 -153 -2 -11 -7 -57 -11 -103 -3 -45 -8 -98 -10 -117 -6 -55
-6 -350 0 -405 3 -27 8 -84 11 -125 5 -72 9 -98 20 -165 3 -16 8 -46 11 -65 9
-61 62 -253 87 -316 64 -162 175 -298 290 -353 73 -36 100 -42 186 -42 186 0
348 126 469 366 61 122 152 432 168 573 3 26 7 58 10 72 2 14 7 71 9 128 5
119 -6 153 -55 170 -40 14 -86 -2 -104 -37 -12 -23 -27 -82 -40 -164 -3 -15
-7 -35 -10 -45 -3 -9 -7 -29 -10 -43 -8 -46 -56 -219 -88 -319 -39 -121 -117
-282 -165 -342 -70 -86 -158 -115 -209 -67 -40 36 -82 143 -100 249 -2 14 -6
34 -9 46 -20 91 -26 427 -11 614 11 135 13 147 20 197 4 23 9 55 11 70 5 40
15 96 20 113 2 8 7 31 10 50 14 80 38 170 81 299 56 164 61 226 24 267 -28 30
-126 78 -180 88 -19 3 -45 8 -56 10 -22 5 -75 13 -134 21 -19 2 -75 7 -125 10
-231 13 -274 25 -276 73 -1 15 0 59 2 97 7 178 -6 240 -55 263 -23 10 -101 9
-161 -3 -58 -12 -173 -74 -196 -107 -23 -32 -26 -69 -14 -203 27 -319 27 -967
-1 -1218 -11 -99 -55 -302 -85 -392 -44 -131 -104 -238 -180 -319 -121 -129
-235 -177 -419 -178 -125 0 -190 20 -273 85 -87 69 -127 117 -171 210 -43 89
-56 152 -56 270 0 102 1 108 19 102 60 -19 189 -21 269 -4 68 14 135 46 217
104 281 200 476 726 404 1085 -50 248 -240 446 -463 485 -71 12 -93 12 -196 0
-215 -26 -431 -223 -571 -520 -92 -197 -169 -467 -194 -690 -3 -27 -8 -68 -11
-90 -5 -37 -45 -210 -95 -410 -69 -279 -178 -492 -285 -564 -26 -17 -52 -31
-58 -32 -6 0 -22 -2 -35 -5 -62 -11 -125 38 -163 126 -22 51 -46 144 -54 210
-3 25 -10 63 -15 85 -8 38 -4 926 5 1164 3 63 7 180 11 260 3 80 7 169 10 196
2 28 7 84 10 125 3 41 7 84 10 95 2 11 4 23 4 28 1 9 42 25 84 32 18 3 39 8
47 10 73 19 434 49 595 49 65 0 100 -5 124 -17 46 -23 57 -21 69 11 24 60 18
95 -23 141 -37 41 -115 76 -190 86 -22 3 -50 8 -62 10 -12 3 -102 7 -200 10
-206 6 -337 13 -373 22 -27 6 -72 42 -66 52 2 3 7 49 10 101 8 110 12 160 20
250 3 36 8 97 11 135 3 39 8 90 10 115 2 25 7 83 10 130 4 47 9 89 12 93 10
16 -29 58 -78 83 -95 47 -416 116 -446 95 -13 -9 -31 -60 -37 -106 -16 -106
-16 -118 -31 -575 -6 -187 -13 -273 -26 -322 l-10 -38 -107 -1 c-158 0 -363
-9 -392 -15 -45 -11 -263 -12 -325 -3 -55 9 -111 41 -101 58 2 3 7 49 11 101
16 222 26 349 40 495 2 22 6 78 10 125 3 47 8 93 11 102 8 28 -46 74 -119 103
-68 26 -257 68 -349 78 -36 3 -51 0 -62 -12z m3672 -1782 c40 -25 57 -84 56
-194 -3 -304 -131 -638 -292 -761 -48 -37 -94 -53 -157 -55 -78 -3 -94 1 -106
23 -51 95 38 534 156 768 40 78 104 166 147 199 59 47 140 55 196 20z"/>
<path d="M3634 3429 c-314 -38 -573 -345 -714 -846 -66 -236 -94 -435 -94
-688 -1 -377 72 -638 234 -844 94 -119 270 -228 430 -267 113 -28 375 -25 485
4 83 23 247 99 281 130 10 10 27 23 37 28 10 6 50 42 89 80 122 120 234 310
292 493 46 147 73 360 55 441 -16 70 -89 101 -142 60 -26 -21 -41 -64 -61
-180 -15 -83 -67 -264 -96 -333 -100 -238 -250 -374 -456 -413 -48 -9 -157
-10 -201 -2 -64 11 -61 10 -124 40 -112 55 -220 190 -264 330 -20 64 -25 100
-25 190 l0 110 28 -7 c77 -21 183 -21 282 0 38 7 161 70 199 102 82 67 104 89
160 164 143 189 247 482 254 709 6 235 -51 398 -188 536 -129 130 -282 185
-461 163z m303 -434 c52 -60 55 -178 12 -405 -47 -248 -177 -484 -300 -548
-51 -26 -135 -40 -189 -32 -29 4 -37 11 -46 39 -47 146 81 651 214 843 62 89
107 127 169 143 62 16 100 5 140 -40z"/>
</g>
</svg>
