<?xml version="1.0" standalone="no"?>
<!DOCTYPE svg PUBLIC "-//W3C//DTD SVG 20010904//EN"
 "http://www.w3.org/TR/2001/REC-SVG-20010904/DTD/svg10.dtd">
<svg version="1.0" xmlns="http://www.w3.org/2000/svg"
 width="1554.000000pt" height="490.000000pt" viewBox="0 0 1554.000000 490.000000"
 preserveAspectRatio="xMidYMid meet">
<metadata>
Created by potrace 1.16, written by Peter Selinger 2001-2019
</metadata>
<g transform="translate(0.000000,490.000000) scale(0.100000,-0.100000)"
fill="#000000" stroke="none">
<path d="M5685 4875 c-363 -71 -723 -395 -955 -856 -41 -81 -117 -267 -138
-339 -54 -183 -76 -281 -98 -435 -3 -27 -8 -59 -10 -70 -21 -113 -20 -602 1
-668 2 -6 6 -31 9 -54 10 -81 39 -199 75 -304 157 -461 489 -757 926 -824 86
-13 327 -14 402 -2 188 33 374 129 533 277 25 23 50 45 55 50 14 11 10 -486
-4 -615 -36 -311 -161 -502 -404 -616 -163 -76 -482 -97 -642 -43 -81 27 -125
53 -177 105 -72 72 -117 185 -120 300 0 36 -2 38 -57 55 -78 24 -183 23 -243
-5 -122 -55 -180 -220 -132 -381 61 -207 312 -354 674 -395 25 -2 68 -7 95
-10 64 -7 313 -7 385 0 162 16 193 21 310 50 195 49 389 148 512 260 222 204
322 466 314 817 -2 80 -6 151 -10 156 -3 5 -8 24 -11 43 -3 19 -29 126 -57
239 -28 113 -53 230 -56 260 -12 112 -5 341 13 430 3 14 8 38 11 55 11 63 57
183 100 262 24 46 44 87 44 93 0 11 -58 39 -156 74 -57 21 -84 25 -159 23
-102 -3 -166 -26 -224 -80 -37 -35 -78 -118 -87 -175 -3 -20 -7 -39 -9 -43 -5
-7 -14 -122 -20 -244 -2 -55 -9 -125 -15 -155 -74 -391 -377 -554 -750 -403
-175 71 -318 205 -403 378 -33 67 -81 204 -92 263 -5 26 -10 51 -19 98 -27
132 -27 649 -1 794 3 14 7 48 10 75 5 47 18 130 30 200 16 88 58 242 89 328
130 358 323 566 587 634 13 3 69 7 124 9 86 3 108 0 157 -20 142 -58 200 -170
193 -376 -3 -86 -15 -251 -20 -281 -3 -16 -16 -152 -20 -199 -8 -120 106 -218
248 -212 203 8 326 143 364 399 13 92 12 389 -3 458 -29 139 -109 250 -210
289 -95 37 -164 75 -264 146 -223 158 -310 192 -505 194 -71 1 -157 -3 -190
-9z"/>
<path d="M2048 4865 c-2 -1 -26 -5 -54 -8 -98 -10 -169 -85 -202 -214 -15 -62
-17 -134 -16 -809 l1 -742 -721 5 c-397 2 -757 4 -802 4 -174 1 -243 -50 -245
-179 -2 -138 94 -219 296 -248 28 -4 371 -7 762 -6 l713 2 2 -834 c3 -824 3
-835 24 -863 11 -15 40 -38 64 -50 77 -40 234 -17 304 45 10 9 26 34 36 54 15
34 16 104 13 843 l-4 805 798 1 c439 0 813 2 831 4 55 6 105 37 129 80 19 33
22 52 19 115 -4 106 -50 179 -136 217 -37 17 -18 17 -1253 9 l-388 -2 2 815
c2 759 1 819 -16 859 -9 23 -29 51 -44 61 -23 16 -106 43 -113 36z"/>
<path d="M9401 4807 c-40 -50 -50 -142 -66 -662 -6 -202 -14 -301 -27 -342
l-10 -33 -106 -1 c-217 -1 -420 -12 -467 -25 -68 -19 -94 -45 -95 -95 0 -84
110 -152 300 -184 14 -2 70 -11 125 -20 55 -9 129 -27 165 -38 l65 -22 -1
-135 c-1 -114 -9 -376 -19 -575 -16 -316 -22 -839 -11 -909 3 -17 8 -65 11
-106 5 -62 24 -168 61 -340 12 -56 87 -240 127 -309 49 -87 160 -206 232 -249
105 -63 262 -85 364 -50 30 10 74 30 98 44 90 52 208 190 286 334 68 123 200
480 222 598 7 40 13 68 34 161 19 88 20 186 0 232 -19 48 -111 76 -150 46 -30
-22 -65 -116 -85 -226 -40 -215 -131 -484 -205 -607 -86 -141 -195 -207 -282
-170 -58 24 -110 109 -133 217 -16 78 -24 125 -31 181 -10 76 -9 859 1 1153 9
291 28 627 40 713 4 25 41 39 142 57 217 37 315 40 456 16 173 -30 250 -47
292 -65 l38 -16 -7 -198 c-7 -213 -10 -285 -19 -492 -24 -532 -24 -875 -1
-1030 2 -14 7 -47 10 -75 37 -317 160 -606 322 -755 106 -97 223 -140 361
-134 151 7 297 113 424 308 44 69 114 210 149 303 23 59 39 80 39 49 0 -27 63
-161 107 -231 54 -84 169 -197 246 -243 148 -88 267 -117 487 -117 131 1 168
4 235 23 306 87 540 315 671 652 27 71 80 265 110 405 13 60 35 185 40 220 2
22 7 52 9 68 8 46 13 80 20 137 4 30 9 62 10 70 1 8 6 40 10 70 4 30 9 64 11
75 2 11 6 44 9 75 3 30 7 64 10 75 2 11 4 34 4 52 1 18 11 44 24 59 22 25 29
27 105 27 68 -1 86 -5 113 -23 l31 -23 -6 -126 c-7 -132 -8 -139 -22 -261 -17
-145 -10 -652 11 -744 3 -11 7 -39 9 -61 3 -22 12 -76 21 -120 87 -428 284
-667 547 -666 111 1 169 20 254 85 149 114 252 298 334 596 60 219 95 500 70
574 -12 37 -51 66 -81 61 -63 -10 -78 -31 -99 -135 -79 -402 -190 -711 -297
-830 -54 -60 -92 -82 -142 -82 -69 0 -121 93 -156 277 -24 122 -30 205 -30
385 1 192 9 325 30 470 6 38 42 242 49 275 19 86 32 135 72 254 56 164 61 227
24 266 -41 45 -144 87 -240 100 -25 3 -52 8 -60 10 -23 6 -106 14 -205 20
-194 11 -264 28 -266 62 -1 10 0 52 1 93 7 208 -4 257 -60 280 -45 19 -152 2
-237 -36 -17 -8 -35 -14 -41 -14 -5 0 -28 -18 -51 -40 -34 -34 -45 -55 -43
-90 2 -65 14 -269 20 -340 16 -211 7 -857 -14 -1025 -13 -96 -57 -297 -85
-380 -33 -97 -97 -226 -136 -272 -55 -64 -98 -105 -140 -134 -161 -111 -415
-125 -563 -31 -47 30 -150 128 -150 142 0 5 -6 15 -14 22 -22 22 -52 87 -75
162 -29 93 -31 290 -3 282 72 -22 206 -23 285 -2 236 63 441 296 551 628 71
213 88 401 52 577 -42 198 -201 385 -383 446 -131 45 -308 33 -427 -27 -239
-120 -424 -395 -536 -796 -17 -59 -33 -120 -36 -137 -3 -16 -9 -48 -14 -71 -5
-22 -12 -61 -15 -85 -3 -24 -7 -55 -10 -69 -3 -14 -7 -50 -10 -80 -7 -68 -81
-380 -132 -550 -52 -176 -138 -342 -215 -413 -88 -82 -191 -84 -252 -5 -29 39
-71 148 -79 206 -3 20 -8 44 -11 52 -27 83 -28 1019 -1 1545 11 218 24 393 31
416 12 42 178 72 534 95 184 13 282 10 320 -9 44 -23 47 -22 69 14 15 25 17
38 9 72 -17 78 -97 133 -222 153 -21 3 -48 8 -60 10 -11 2 -100 6 -196 9 -322
9 -390 16 -423 40 -22 16 -22 24 -13 140 4 50 9 113 12 140 2 28 6 79 9 115 3
36 8 91 10 123 3 31 7 83 10 115 3 31 7 86 10 122 3 36 7 77 9 92 2 15 -3 37
-11 48 -36 51 -219 111 -410 135 -26 4 -58 8 -70 10 -56 9 -76 -76 -87 -370
-3 -71 -8 -204 -11 -295 -8 -247 -14 -308 -30 -361 -6 -17 -17 -19 -123 -20
-140 -1 -298 -7 -367 -15 -90 -10 -282 -12 -341 -2 -54 8 -110 40 -100 57 2 3
7 51 11 106 7 97 8 118 20 255 3 36 8 94 11 130 3 36 7 81 9 100 2 19 7 80 11
135 3 55 8 103 10 106 8 13 -31 51 -77 74 -57 30 -201 69 -309 85 -41 6 -87
13 -102 15 -14 2 -31 -1 -37 -8z m3678 -1803 c50 -56 61 -139 40 -284 -4 -30
-10 -72 -13 -92 -5 -31 -19 -99 -30 -143 -3 -12 -7 -21 -48 -133 -55 -146
-150 -270 -242 -315 -55 -27 -149 -38 -193 -23 -45 15 -52 137 -17 316 2 14 6
35 9 47 33 178 122 411 199 523 95 140 224 185 295 104z"/>
<path d="M8148 3435 c-2 -1 -31 -5 -65 -9 -34 -4 -81 -13 -105 -22 -129 -45
-289 -180 -383 -324 -129 -197 -249 -540 -281 -805 -4 -27 -8 -53 -10 -56 -16
-28 -24 -416 -11 -539 34 -333 144 -575 330 -731 158 -132 323 -187 569 -187
251 -1 452 79 633 249 194 184 334 477 361 755 13 132 9 202 -13 232 -38 51
-108 55 -139 7 -15 -23 -38 -99 -47 -160 -10 -59 -38 -165 -66 -253 -95 -290
-259 -456 -491 -499 -75 -14 -213 -6 -271 16 -145 55 -265 192 -318 366 -16
51 -21 94 -21 177 0 100 2 109 18 104 64 -21 207 -22 292 -2 51 12 167 77 231
129 209 173 380 561 383 867 2 231 -64 403 -205 534 -71 66 -164 117 -244 134
-52 12 -141 22 -147 17z m228 -415 c42 -26 59 -76 59 -174 -2 -383 -180 -774
-379 -827 -59 -16 -155 -15 -172 2 -18 19 -25 134 -13 214 5 33 11 71 13 85
26 174 116 434 192 552 98 153 207 207 300 148z"/>
</g>
</svg>
